<svg xmlns="http://www.w3.org/2000/svg" width="32" height="32" viewBox="0 0 32 32"><defs><style>.cls-1{fill:#09f;}</style></defs><title>Asset 7</title><g id="Layer_2" data-name="Layer 2"><g id="Layer_1-2" data-name="Layer 1"><path class="cls-1" d="M13.3,17.973a6.878,6.878,0,0,0,1.026,1.137,1.384,1.384,0,0,0,.766.408.51.51,0,0,0,.383-.192.608.608,0,0,0,.173-.414,4.3,4.3,0,0,0-.34-1.094,10.961,10.961,0,0,0-.847-1.687,3.948,3.948,0,0,0-.729-.933,1.061,1.061,0,0,0-.68-.315.865.865,0,0,0-.575.328.928.928,0,0,0-.315.612,2.214,2.214,0,0,0,.309.89A8.408,8.408,0,0,0,13.3,17.973Z"/><path class="cls-1" d="M20.871,15.339a5.107,5.107,0,0,0-1.972-.754,13.734,13.734,0,0,0-3.06-.334,1.026,1.026,0,0,0-.63.148.614.614,0,0,0-.185.507,1.276,1.276,0,0,0,.94,1.218A8.847,8.847,0,0,0,19,16.5h.507a.34.34,0,0,1,.278.13.8.8,0,0,1,.142.389,2.921,2.921,0,0,1-.865.451,4.657,4.657,0,0,0-1,.5,4.44,4.44,0,0,0-1.193,1.292,2.757,2.757,0,0,0-.451,1.416,3.193,3.193,0,0,0,.192.983,3.445,3.445,0,0,1,.192.711v.087l-.025.111a1.041,1.041,0,0,1-.859-.637,3.454,3.454,0,0,1-.315-1.6v-.111a.684.684,0,0,1-.192.124.545.545,0,0,1-.2.037,1.137,1.137,0,0,1-.21-.019,2.16,2.16,0,0,1-.223-.056,2.2,2.2,0,0,1,.056.266,1.537,1.537,0,0,1,.018.2,1.027,1.027,0,0,1-.358.785,1.222,1.222,0,0,1-.853.328,2.347,2.347,0,0,1-1.582-.76,2.126,2.126,0,0,1-.8-1.49.855.855,0,0,1,.031-.241.413.413,0,0,1,.105-.179q.173.21.482.618.816,1.125,1.508,1.125a.655.655,0,0,0,.42-.148.409.409,0,0,0,.185-.309,1.536,1.536,0,0,0-.247-.618,7.983,7.983,0,0,0-.68-.977,7.346,7.346,0,0,0-.822-.921.927.927,0,0,0-.525-.291,1.024,1.024,0,0,0-.8.464,1.717,1.717,0,0,0-.365,1.094A3.042,3.042,0,0,0,10.8,20.39a5.457,5.457,0,0,0,.736,1.255,4.907,4.907,0,0,0,1.811,1.5,5.4,5.4,0,0,0,2.392.525,5.221,5.221,0,0,0,4.036-1.8A6.469,6.469,0,0,0,21.4,17.367a5.589,5.589,0,0,0-.124-1.317A1.26,1.26,0,0,0,20.871,15.339Z"/><path class="cls-1" d="M14.912,13.528a1,1,0,0,1,.371-.056c.049,0,.148,0,.3.012s.391.029.729.062L14.974,9.69a11.576,11.576,0,0,0-.8-1.922q-.285-.451-.618-.451a.516.516,0,0,0-.42.2.818.818,0,0,0-.161.532,8.03,8.03,0,0,0,.433,1.978q.433,1.409,1.3,3.7A.412.412,0,0,1,14.912,13.528Z"/><path class="cls-1" d="M20.642,10.252a9.28,9.28,0,0,0,.464-1.8.885.885,0,0,0-.155-.556.512.512,0,0,0-.427-.2q-.346,0-.7.575a9.528,9.528,0,0,0-.791,1.848L17.793,13.7l1.558.272Q20.178,11.717,20.642,10.252Z"/><path class="cls-1" d="M16.4,18.5a6.138,6.138,0,0,1,.624-.674,5.221,5.221,0,0,1,.686-.538,7.608,7.608,0,0,1-1.008-.111,5.341,5.341,0,0,1-.909-.247q.2.4.352.791A6.9,6.9,0,0,1,16.4,18.5Z"/><path class="cls-1" d="M16,0A16,16,0,1,0,32,16,16,16,0,0,0,16,0Zm4.395,22.516A6.3,6.3,0,0,1,15.6,24.5a6.19,6.19,0,0,1-2.231-.414,5.527,5.527,0,0,1-1.861-1.156,5.857,5.857,0,0,1-1.335-1.724,4.186,4.186,0,0,1-.445-1.861,2.6,2.6,0,0,1,.457-1.644,2.4,2.4,0,0,1,1.446-.791,6.624,6.624,0,0,1-.272-.729,1.775,1.775,0,0,1-.087-.457,1.65,1.65,0,0,1,.587-1.137A1.651,1.651,0,0,1,12.971,14a1.521,1.521,0,0,1,.47.08,3.083,3.083,0,0,1,.569.266q-.952-2.7-1.385-4.16a8.681,8.681,0,0,1-.433-2.021,1.781,1.781,0,0,1,.4-1.218A1.357,1.357,0,0,1,13.663,6.5q1.162,0,2.942,5.192.309.89.47,1.372.136-.383.383-1.088,1.78-5.143,3.066-5.143a1.278,1.278,0,0,1,1.008.427A1.665,1.665,0,0,1,21.909,8.4a8.825,8.825,0,0,1-.414,1.99q-.414,1.446-1.255,3.783a2.226,2.226,0,0,1,1.57.94,4.459,4.459,0,0,1,.457,2.3A7.129,7.129,0,0,1,20.395,22.516Z"/></g></g></svg>