<svg xmlns="http://www.w3.org/2000/svg" width="32" height="32" viewBox="0 0 32 32"><defs><style>.cls-1{fill:#09f;}</style></defs><title>Asset 8</title><g id="Layer_2" data-name="Layer 2"><g id="Layer_1-2" data-name="Layer 1"><path class="cls-1" d="M16,0A16,16,0,1,0,32,16,16,16,0,0,0,16,0Zm2.76,24.484c-.442.085-.6-.186-.6-.419,0-.286.011-1.226.011-2.391a2.08,2.08,0,0,0-.592-1.614c1.942-.216,3.979-.953,3.979-4.3a3.363,3.363,0,0,0-.9-2.339,3.13,3.13,0,0,0-.087-2.306s-.73-.234-2.394.893a8.261,8.261,0,0,0-4.364,0c-1.665-1.128-2.4-.893-2.4-.893a3.134,3.134,0,0,0-.085,2.306,3.369,3.369,0,0,0-.9,2.339c0,3.34,2.035,4.087,3.97,4.307a1.862,1.862,0,0,0-.553,1.165,1.856,1.856,0,0,1-2.536-.724,1.831,1.831,0,0,0-1.335-.9s-.851-.011-.06.53a2.308,2.308,0,0,1,.968,1.275s.512,1.695,2.936,1.168c0,.727.012,1.275.012,1.482,0,.231-.159.5-.595.42a8.714,8.714,0,1,1,5.515,0Z"/></g></g></svg>