<svg xmlns="http://www.w3.org/2000/svg" width="32" height="32" viewBox="0 0 32 32"><defs><style>.cls-1{fill:#444;}</style></defs><title>linkedin</title><g id="Layer_2" data-name="Layer 2"><g id="Layer_1-2" data-name="Layer 1"><path class="cls-1" d="M16,0A16,16,0,1,0,32,16,16,16,0,0,0,16,0ZM12.987,21.7H10.071V12.929h2.915Zm-1.458-9.969H11.51A1.52,1.52,0,1,1,11.548,8.7a1.52,1.52,0,1,1-.019,3.031ZM23.5,21.7H20.586V17.007c0-1.179-.421-1.983-1.477-1.983a1.6,1.6,0,0,0-1.5,1.066,2,2,0,0,0-.1.711v4.9H14.6s.039-7.949,0-8.771h2.917v1.243a2.9,2.9,0,0,1,2.628-1.449c1.919,0,3.358,1.253,3.358,3.947Z"/><path class="cls-1" d="M17.516,14.2v-.029c-.006.01-.014.019-.019.029Z"/></g></g></svg>