<svg xmlns="http://www.w3.org/2000/svg" width="32" height="32" viewBox="0 0 32 32"><defs><style>.cls-1{fill:#09f;}</style></defs><title>Asset 9</title><g id="Layer_2" data-name="Layer 2"><g id="Layer_1-2" data-name="Layer 1"><path class="cls-1" d="M16,0A16,16,0,1,0,32,16,16,16,0,0,0,16,0Zm8.684,11.671a6.66,6.66,0,0,1-1.34,1.47.573.573,0,0,0-.215.446v.051a9.413,9.413,0,0,1-.6,3.261,9.545,9.545,0,0,1-1.779,2.98,8.769,8.769,0,0,1-2.906,2.177,9.375,9.375,0,0,1-3.971.842,9.248,9.248,0,0,1-4.647-1.253.267.267,0,0,1-.128-.295.258.258,0,0,1,.252-.195h.39A6.218,6.218,0,0,0,13.218,20.1a3.377,3.377,0,0,1-2.667-2.3.176.176,0,0,1,.2-.227,3.035,3.035,0,0,0,.568.054h.072a3.374,3.374,0,0,1-1.968-3.108.176.176,0,0,1,.262-.152,3.022,3.022,0,0,0,.769.3,3.373,3.373,0,0,1-.548-4.1.176.176,0,0,1,.289-.023,8.835,8.835,0,0,0,6.072,3.244h.012a.125.125,0,0,0,.093-.042.121.121,0,0,0,.03-.095,3.6,3.6,0,0,1,.08-1.241,3.264,3.264,0,0,1,2.2-2.352A3.6,3.6,0,0,1,19.749,9.9a3.37,3.37,0,0,1,2.229.841.436.436,0,0,0,.288.11.42.42,0,0,0,.1-.013,6.218,6.218,0,0,0,1.647-.681.176.176,0,0,1,.258.205,3.36,3.36,0,0,1-.887,1.412,6.188,6.188,0,0,0,1.078-.363A.176.176,0,0,1,24.684,11.671Z"/></g></g></svg>